<svg xmlns="http://www.w3.org/2000/svg" xmlns:xlink="http://www.w3.org/1999/xlink" width="49.93" height="49.93" viewBox="0 0 49.93 49.93">
  <defs>
    <clipPath id="clip-path">
      <rect id="Rectangle_16105" data-name="Rectangle 16105" width="49.93" height="49.93" fill="#fff" stroke="#707070" stroke-width="1"/>
    </clipPath>
    <linearGradient id="linear-gradient" x1="0.444" y1="-0.076" x2="0.635" y2="1.188" gradientUnits="objectBoundingBox">
      <stop offset="0" stop-color="#7e349d"/>
      <stop offset="1" stop-color="#1297e0"/>
    </linearGradient>
    <linearGradient id="linear-gradient-2" x1="0.501" y1="1.135" x2="0.492" y2="-0.041" gradientUnits="objectBoundingBox">
      <stop offset="0" stop-color="#ffccbc"/>
      <stop offset="1" stop-color="#dcc6e0"/>
    </linearGradient>
    <linearGradient id="linear-gradient-3" x1="0.576" y1="1.13" x2="0.462" y2="-0.149" xlink:href="#linear-gradient-2"/>
    <linearGradient id="linear-gradient-4" x1="0.531" y1="1.185" x2="0.484" y2="-0.186" gradientUnits="objectBoundingBox">
      <stop offset="0" stop-color="#e74c3c"/>
      <stop offset="1" stop-color="#f1c40f"/>
    </linearGradient>
    <linearGradient id="linear-gradient-5" x1="0.466" y1="0.178" x2="0.518" y2="1.126" gradientUnits="objectBoundingBox">
      <stop offset="0" stop-color="#e74c3c"/>
      <stop offset="1" stop-color="#7e349d"/>
    </linearGradient>
    <linearGradient id="linear-gradient-6" x1="0.536" y1="1.139" x2="0.433" y2="0.202" gradientUnits="objectBoundingBox">
      <stop offset="0" stop-color="#dcc6e0"/>
      <stop offset="1" stop-color="#ffbcd8"/>
    </linearGradient>
    <linearGradient id="linear-gradient-7" x1="0.528" y1="1.238" x2="0.453" y2="0.161" xlink:href="#linear-gradient"/>
    <linearGradient id="linear-gradient-8" x1="0.533" y1="1.12" x2="0.405" y2="0.122" gradientUnits="objectBoundingBox">
      <stop offset="0" stop-color="#0287d0"/>
      <stop offset="1" stop-color="#009b90"/>
    </linearGradient>
    <linearGradient id="linear-gradient-9" x1="0.844" y1="1.235" x2="0.02" y2="-0.084" gradientUnits="objectBoundingBox">
      <stop offset="0" stop-color="#009b90"/>
      <stop offset="1" stop-color="#4eec91"/>
    </linearGradient>
  </defs>
  <g id="Mask_Group_1" data-name="Mask Group 1" clip-path="url(#clip-path)">
    <g id="Group_49865" data-name="Group 49865" transform="translate(-23.174 -3.848)">
      <path id="Path_580333" data-name="Path 580333" d="M106.317,129.919c-.759,5.8.984,13.735,5.959,18.415,5.045,4.746,14.193-.118,8.056-7.363-6.371-11.753-5.352-22.853,3.384-31.589C115.042,113.322,107.548,120.516,106.317,129.919Z" transform="translate(-104.176 -93.038)" fill-rule="evenodd" fill="url(#linear-gradient)"/>
      <path id="Path_580334" data-name="Path 580334" d="M105.092,183.159h1.125q-.564-.105-1.125-.2Z" transform="translate(-103.71 -125.541)" opacity="0.15" fill="url(#linear-gradient-2)"/>
      <path id="Path_580335" data-name="Path 580335" d="M120,112.856c-7.016,4.157-12.629,10.572-13.68,18.6-.759,5.8.984,13.735,5.959,18.415a6.7,6.7,0,0,0,7.494,1.248,7.413,7.413,0,0,1-7.383-3.851C106.244,136.3,106.645,122.945,120,112.856Z" transform="translate(-104.176 -94.573)" fill-rule="evenodd" opacity="0.15" fill="url(#linear-gradient-3)"/>
      <path id="Path_580336" data-name="Path 580336" d="M119.11,134.566a28.961,28.961,0,0,0,8.388,11.117,7.283,7.283,0,0,0-2.043-4.711c-6.371-11.753-5.352-22.853,3.384-31.589C121.175,114.023,114.858,124.036,119.11,134.566Z" transform="translate(-109.276 -93.039)" fill-rule="evenodd" opacity="0.15"/>
      <path id="Path_580337" data-name="Path 580337" d="M134.335,104.376c-15,6.663-20.3,26.15-1.3,39.354-13.162-13.049,3.439-23.37,10.58-29.52C150.18,108.557,143.345,100.372,134.335,104.376Z" transform="translate(-110.617 -90.357)" fill="#ff6c5c" fill-rule="evenodd"/>
      <path id="Path_580338" data-name="Path 580338" d="M128.717,132.33a18.237,18.237,0,0,1,2.691-24.351c-12.678,7.757-16.081,25.513,1.626,37.816C128.094,140.895,127.346,136.381,128.717,132.33Z" transform="translate(-110.63 -92.418)" fill="#ffccbc" fill-rule="evenodd" opacity="0.15"/>
      <path id="Path_580339" data-name="Path 580339" d="M128.715,132.327q-.191-.262-.371-.532a12.513,12.513,0,0,0-.57,2.032,11.7,11.7,0,0,0,1.81,8.565,25.868,25.868,0,0,1-6.808-9.38,18.869,18.869,0,0,1-.64-12.61,21.012,21.012,0,0,1,7.37-10.478,18.183,18.183,0,0,1,1.9-1.95c-12.678,7.757-16.081,25.513,1.626,37.816C128.092,140.893,127.345,136.379,128.715,132.327Z" transform="translate(-110.628 -92.416)" fill="#ffccbc" fill-rule="evenodd" opacity="0.3"/>
      <path id="Path_580340" data-name="Path 580340" d="M137.7,104.375a23.9,23.9,0,0,0-9.263,7.184,38.269,38.269,0,0,0,3.648-1.681,71.241,71.241,0,0,1,7.1-3.558,7.847,7.847,0,0,1,4.913-.42,3.532,3.532,0,0,1,2.279,1.822c.856,1.88-.562,4.32-1.931,5.5-5.19,4.468-11.419,8.75-13.917,14.195-2.251,4.907-1.319,11.121,5.586,16.03-12.638-12.915,3.767-23.13,10.857-29.236C153.548,108.557,146.713,100.371,137.7,104.375Z" transform="translate(-113.976 -90.356)" fill-rule="evenodd" opacity="0.15"/>
      <path id="Path_580341" data-name="Path 580341" d="M106.573,85.975c-6.567,5.443-4.431,13.751,2.536,14.5,6.747.729,12.254-4.219,17.925-6.383,8.6-3.28,13.936,4.36,7.369,10.013-3.7,3.189-10.575,7.463-13.905,13-4.109,6.829.8,15.044,6.862,17.744l0,0c-.059-.034-.118-.068-.175-.1-5.644-3.42-6.946-9.451-2.148-15.4,6.789-8.408,23.617-13.812,18.123-28.02C137.808,77.76,117.224,77.149,106.573,85.975Z" transform="translate(-102.617 -80.104)" fill-rule="evenodd" fill="url(#linear-gradient-4)"/>
      <path id="Path_580342" data-name="Path 580342" d="M134.645,94.552c-7.277-2.086-15.5,3.3-21.119,6.374-5.832,3.187-12.314,2.749-10.035-4.94-2.333,4.853.16,10.08,5.617,10.67,6.747.729,12.254-4.219,17.925-6.383,8.6-3.28,13.936,4.36,7.369,10.013-3.7,3.189-10.575,7.463-13.905,13-4.032,6.7.622,14.739,6.525,17.587-.121-.094-.235-.186-.362-.281h0a12.207,12.207,0,0,1-1.864-1.517c-7.526-6.721-5.634-13.59-.77-18.558,4.1-4.192,10.006-6.95,13.733-10.277C144.574,104.155,139.929,96.066,134.645,94.552Z" transform="translate(-102.617 -86.28)" fill="#f9fcba" fill-rule="evenodd" opacity="0.15"/>
      <path id="Path_580343" data-name="Path 580343" d="M135.785,127.828c-3.521,4.361-2.779,8.778-.463,12a14.879,14.879,0,0,0,5.622,4.78l0-.005c-.059-.034-.118-.068-.175-.1-5.644-3.42-6.946-9.451-2.148-15.4,6.61-8.188,22.735-13.528,18.508-26.917C159.893,116.649,143.186,118.66,135.785,127.828Z" transform="translate(-116.135 -89.86)" fill-rule="evenodd" opacity="0.15"/>
      <path id="Path_580344" data-name="Path 580344" d="M142.041,105.729a6.3,6.3,0,0,0-3.547-2.565,10.386,10.386,0,0,0-6.608.483c-4.008,1.528-11.857,7.365-17.861,6.863l.123.014c4.81.52,8.99-1.846,13.048-4.031h0a42.379,42.379,0,0,1,4.873-2.35c8.6-3.28,13.936,4.36,7.37,10.013-3.7,3.19-10.575,7.463-13.905,13a10.556,10.556,0,0,0-1.2,8.03h0a10.648,10.648,0,0,1,.229-1.7,10.348,10.348,0,0,1,1.427-6.053,25.544,25.544,0,0,1,4.6-5.417c1.553-1.437,3.208-2.757,4.881-4.049,1.442-1.115,2.93-2.214,4.311-3.4a8.962,8.962,0,0,0,2.859-4.131,5.677,5.677,0,0,0-.232-4A5.5,5.5,0,0,0,142.041,105.729Z" transform="translate(-107.657 -90.147)" fill="#f9fcba" fill-rule="evenodd" opacity="0.3"/>
      <path id="Path_580345" data-name="Path 580345" d="M166.244,136.182a5.489,5.489,0,0,0-3.9-1.463c-4.173.284-9.669,1.534-13.582,1.032-3.67-.47-5.111-2.335-4.634-4.75.827-4.182,9.451-8.385,13.6-15.939.313-.586.594-1.171.838-1.76v0a14.666,14.666,0,0,0,.832-8.142q-.089-.307-.16-.627a25.937,25.937,0,0,0-.989-3.394q-.166-.459-.362-.921c5.495,14.206-12.613,19.158-19.4,27.568-4.6,5.7-2.42,11.889,2.737,15.4,5.3,3.615,18.8,4.279,24.073,1.876A5.122,5.122,0,0,0,166.244,136.182Z" transform="translate(-117.245 -88.988)" fill-rule="evenodd" fill="url(#linear-gradient-5)"/>
      <path id="Path_580346" data-name="Path 580346" d="M145.872,142.251c-6.908-2.77-10.332-8.666-3.117-16.037,5.292-5.405,20.291-10.523,15.557-24.924-.018-.052-.037-.1-.055-.155q-.166-.459-.362-.921c5.495,14.206-12.613,19.158-19.4,27.568-4.6,5.7-2.42,11.889,2.737,15.4,5.3,3.615,18.8,4.279,24.073,1.876a5.09,5.09,0,0,0,3.093-4.535C165.594,144.669,153.626,145.358,145.872,142.251Z" transform="translate(-117.247 -88.989)" fill-rule="evenodd" opacity="0.15" fill="url(#linear-gradient-6)"/>
      <path id="Path_580347" data-name="Path 580347" d="M170.56,139.841a5.911,5.911,0,0,0-4.1-1.114c-4.174.284-9.462,1.185-13.376.683-3.67-.47-5.111-2.335-4.634-4.75.827-4.182,9.451-8.385,13.6-15.939.313-.586.594-1.171.838-1.76v0a14.666,14.666,0,0,0,.832-8.142c-.029-.1-.055-.207-.085-.312,1.59,9.615-7.113,15.374-11.614,19.15-2.718,2.28-6.864,4.455-6.2,8.644.507,3.221,3.522,5.005,6.527,5.391a30.736,30.736,0,0,0,8.005-.454c2.052-.3,4.155-.684,6.221-.824,1.049-.072,5.618-.474,6.116,4.157A5.283,5.283,0,0,0,170.56,139.841Z" transform="translate(-121.562 -92.651)" fill-rule="evenodd" opacity="0.15"/>
      <path id="Path_580348" data-name="Path 580348" d="M171.858,132.748c-.86.388-2.405.009-3.351.24-6.068,1.526-12.776,1.257-9.127-3.729,4.576-6.255,6.979-11.728,5.744-19.6a15.1,15.1,0,0,1,.025,4.478h0l-.018.118v0c-.012.079-.025.157-.039.235v.009l-.017.094-.006.034-.018.1v.011l-.021.1,0,.019-.02.1,0,.022-.021.1,0,.017c-.007.032-.014.063-.021.094l-.007.032-.018.081-.01.042-.017.072-.012.049-.017.068-.013.05-.017.068-.012.046-.02.078-.009.03-.024.088-.008.027-.023.082-.014.051-.017.061-.017.055-.018.061-.018.061-.016.051-.023.074-.012.038-.022.067-.017.055-.014.043-.023.069-.024.07-.013.036-.027.077-.014.039-.028.079-.011.032-.021.055-.023.063-.04.1v.006l-.041.105v0l-.044.111v0c-.243.589-.525,1.174-.838,1.76q-.078.141-.158.277c-4.23,7.377-13.563,11.571-14.381,15.7-.478,2.416,1.379,4.843,5.048,5.314,3.914.5,9.723-1.006,13.9-1.29a5.911,5.911,0,0,1,4.1,1.114c-1.757-2.488,1.317-3.542,1.331-5.1A3.328,3.328,0,0,0,171.858,132.748Z" transform="translate(-122.912 -93.161)" fill-rule="evenodd" fill="url(#linear-gradient-7)"/>
      <path id="Path_580349" data-name="Path 580349" d="M171.756,139.649c-4.407-1.234-10.718.456-16.118-.1-6.737-.7-.993-6.541,1.464-8.832,8.2-7.655,8.356-15.035,8.31-16.381,0-.073-.008-.145-.012-.218a.352.352,0,0,0-.1-.013,14.489,14.489,0,0,1-.154,2h0l-.018.118v0c-.012.079-.025.157-.039.235v.009l-.017.094-.006.034-.018.1v.011l-.021.1,0,.019-.02.1,0,.022-.021.1,0,.017c-.007.032-.014.063-.021.094l-.007.032-.018.081-.01.042-.017.072-.012.049-.017.068-.013.05-.017.068-.012.046-.02.078-.009.03-.024.088-.008.027-.023.082-.014.051-.017.061-.017.055-.018.061-.018.061-.016.051-.023.074-.012.038-.022.067-.017.055-.014.043-.023.069-.024.07-.013.036-.027.077-.014.039-.028.079-.011.032-.021.055-.023.063-.04.1v.006l-.041.105v0l-.044.111v0c-.243.589-.525,1.174-.838,1.76q-.078.141-.158.277c-4.23,7.377-13.563,11.571-14.381,15.7-.478,2.416,1.379,4.843,5.048,5.314,3.914.5,9.723-1.006,13.9-1.29a5.911,5.911,0,0,1,4.1,1.114A2.159,2.159,0,0,1,171.756,139.649Z" transform="translate(-122.912 -95.123)" fill="#dcc6e0" fill-rule="evenodd" opacity="0.15"/>
      <path id="Path_580350" data-name="Path 580350" d="M177.825,132.683c-.86.388-2.405.009-3.351.24-6.068,1.526-12.776,1.257-9.127-3.729,4.593-6.277,7-11.766,5.732-19.68a15.1,15.1,0,0,1,.026,4.633c-.429,6.666-3.73,9.813-7.214,14.575-.921,1.257-2.052,2.54-1.379,4.067,1.457,3.314,7.588,3.082,10.51,2.662a20.238,20.238,0,0,0,5.385-1.485c.1-.048.207-.1.31-.146l.094-.048A3.736,3.736,0,0,0,177.825,132.683Z" transform="translate(-128.878 -93.096)" fill-rule="evenodd" opacity="0.15"/>
      <path id="Path_580351" data-name="Path 580351" d="M178.648,125.113c-1.149.517-2.186.013-3.072-.029-2.367-.115-1.935-2.33-1.838-5.4.12-3.841-.952-7.744-1.644-10.621,1.373,8.048-1.843,13.625-6.485,19.968-4.241,5.8,7.417,6.1,13.273,3.451.092-.042.182-.084.27-.127,2.3-1.127,2.465-2.826.685-4.937A5.348,5.348,0,0,1,178.648,125.113Z" transform="translate(-129.936 -92.897)" fill-rule="evenodd" fill="url(#linear-gradient-8)"/>
      <path id="Path_580352" data-name="Path 580352" d="M169.075,127.811c2.148-4.79,3.739-11.931,3.353-15.843.073-.231.138-.453.2-.677-.187-.79-.374-1.536-.539-2.224,1.373,8.048-1.843,13.625-6.485,19.969-4.241,5.8,7.417,6.1,13.273,3.451.092-.042.182-.084.27-.127,1.88-.923,2.334-2.228,1.461-3.827C180.528,131.423,165.886,134.918,169.075,127.811Z" transform="translate(-129.936 -92.899)" fill="#5efaf7" fill-rule="evenodd" opacity="0.15"/>
      <path id="Path_580353" data-name="Path 580353" d="M178.919,131.884c-.084.041-.166.082-.254.119a20.154,20.154,0,0,1-10.391,1.358c-.936-.166-2.507-.579-2.933-1.55-.359-.817.225-1.823.694-2.464,3.5-4.783,7.178-10.838,6.3-18.391l.242.111c-.166-.706-.333-1.376-.485-2,1.373,8.048-1.843,13.625-6.485,19.969-4.241,5.8,7.417,6.1,13.273,3.451.092-.042.182-.084.27-.127,2.224-1.092,2.452-2.718.849-4.734C181.57,129.772,180.624,131.048,178.919,131.884Z" transform="translate(-129.936 -92.9)" fill="#5efaf7" fill-rule="evenodd" opacity="0.3"/>
      <path id="Path_580354" data-name="Path 580354" d="M181.313,125.088c-2.367-.115-1.935-2.33-1.839-5.4.12-3.841-.952-7.744-1.643-10.622q.166.963.242,1.88c.832,7.115-.978,11.216-.175,13.982.836,2.875,4.138,2.712,7.009,1.541a4.887,4.887,0,0,1-.523-1.351C183.235,125.635,182.2,125.131,181.313,125.088Z" transform="translate(-135.673 -92.899)" fill-rule="evenodd" opacity="0.15"/>
      <path id="Path_580355" data-name="Path 580355" d="M177.659,107.943a41.622,41.622,0,0,1,1.1,11.323c-.1,3.068.04,6.015,2.406,6.13,2.8.136,8.4-3.147,7.377-5.892C187.546,116.8,180.621,116.878,177.659,107.943Z" transform="translate(-135.661 -92.402)" fill-rule="evenodd" fill="url(#linear-gradient-9)"/>
      <path id="Path_580356" data-name="Path 580356" d="M188.561,119.722c-5.155,4.433-7.155,2.65-8.043-2.108a44.89,44.89,0,0,0-2.607-8.685,42.912,42.912,0,0,1,.961,10.771c-.1,3.069.04,6.016,2.406,6.13,2.8.136,8.4-3.147,7.377-5.892A1.848,1.848,0,0,0,188.561,119.722Z" transform="translate(-135.772 -92.838)" fill="#8effc1" fill-rule="evenodd" opacity="0.15"/>
      <path id="Path_580357" data-name="Path 580357" d="M146.431,144.782a16.275,16.275,0,0,1-4.9-2.033,11.579,11.579,0,0,1-4.572-5.718,8.816,8.816,0,0,1-.251-.905,9.367,9.367,0,0,1,2.2-8.013,26.313,26.313,0,0,1,4.227-4c1.7-1.338,3.478-2.579,5.233-3.843a37.129,37.129,0,0,0,7.607-6.643c.039-.05.078-.1.116-.148,2.482-3.176,4.008-7.221,2.224-12.189-.009-.028-.02-.055-.029-.084a.122.122,0,0,1-.026-.07q-.166-.459-.362-.921.217.56.385,1.1c4.165,13.368-13.177,18.277-19.787,26.464-4.6,5.7-2.42,11.889,2.737,15.4.055.038.111.076.17.111,5.415,3.516,18.685,4.14,23.9,1.763a5.145,5.145,0,0,0,2.956-3.482C166.176,148.381,150.709,145.9,146.431,144.782Z" transform="translate(-117.247 -88.988)" fill="#ffbcd8" fill-rule="evenodd" opacity="0.3"/>
      <path id="Path_580358" data-name="Path 580358" d="M167.06,142.612c-2.464.1-5.584.736-9.383,1.04l-.247.019q-.312.023-.628.041a15.778,15.778,0,0,1-2.829-.065,6.435,6.435,0,0,1-3.278-1.3,3.661,3.661,0,0,1-1.345-2.24,3.283,3.283,0,0,1,.024-1.149,6.581,6.581,0,0,1,1.858-2.893c.162-.166.329-.333.5-.494.412-.4.839-.78,1.268-1.155.694-.606,1.4-1.2,2.108-1.788,3.556-2.983,9.356-8.435,10.021-14.727-.013.079-.026.158-.039.235v.009c0,.032-.011.063-.017.094a.181.181,0,0,1-.006.034c-.006.033-.012.067-.018.1v.011c-.007.034-.013.07-.021.1l0,.019c-.006.033-.013.065-.02.1a.1.1,0,0,1,0,.022c-.007.034-.014.067-.021.1l0,.017c-.007.032-.014.063-.021.094a.132.132,0,0,1-.007.032l-.018.081c0,.014-.007.028-.011.042l-.017.072c0,.017-.008.033-.012.049s-.011.045-.017.068-.008.033-.013.05-.011.045-.017.068-.008.031-.012.046-.014.052-.02.078c0,.01-.006.02-.009.03-.008.029-.016.059-.024.088a.1.1,0,0,1-.008.027c-.007.027-.015.055-.023.082s-.009.034-.014.051-.012.04-.017.061l-.017.055c-.006.021-.012.04-.018.061l-.018.061c-.006.021-.011.033-.016.051s-.016.05-.023.074l-.012.038c-.007.022-.014.045-.022.067s-.011.036-.017.055l-.014.043c-.008.023-.016.046-.023.069s-.016.047-.024.07-.008.024-.013.036-.018.051-.027.077l-.014.039c-.009.026-.018.053-.028.079l-.011.032c-.007.018-.014.037-.021.055l-.023.063c-.042.111-.084.219-.128.327v0c-.243.589-.525,1.174-.838,1.76l-.158.277c-4.23,7.377-13.563,11.571-14.381,15.7-.478,2.416,1.379,4.843,5.048,5.314,3.914.5,9.722-1.006,13.9-1.289h0a5.911,5.911,0,0,1,4.1,1.114,4.186,4.186,0,0,0-1.509-.985A8.325,8.325,0,0,0,167.06,142.612Z" transform="translate(-122.908 -96.802)" fill="#dcc6e0" fill-rule="evenodd" opacity="0.3"/>
      <path id="Path_580359" data-name="Path 580359" d="M187.269,119.261c3.237,2.154-.021,4.75-1.874,5.8a10.33,10.33,0,0,1-2.724,1.078,4.505,4.505,0,0,1-1.153.114,1.567,1.567,0,0,1-.929-.321,1.97,1.97,0,0,1-.547-.78,5.074,5.074,0,0,1-.316-1.171,18.027,18.027,0,0,1-.111-3.315,52.541,52.541,0,0,0-1.054-8.745q-.089-.444-.175-.848.079.409.151.837a46.1,46.1,0,0,1,.55,8.74c-.1,3.068.04,6.016,2.406,6.13a7.516,7.516,0,0,0,3.188-.769l.012,0c2.478-1.116,4.871-3.242,4.175-5.119A3.562,3.562,0,0,0,187.269,119.261Z" transform="translate(-135.982 -93.784)" fill="#8effc1" fill-rule="evenodd" opacity="0.3"/>
    </g>
  </g>
</svg>
